<?xml version="1.0" encoding="utf-8"?>
<svg width="600" weight="600" xmlns="http://www.w3.org/2000/svg">
  <polygon points=" 4,38 5,37 5,37 5,36 5,35 6,34 6,34 7,33 8,33 9,33 9,33 10,32 11,32 12,32 13,32 14,32 15,32 16,32 17,32 18,32 19,32 20,32 21,32 22,32 23,32 24,32 25,32 26,32 27,32 28,32 29,32 30,32 31,32 32,32 33,32 34,32 34,32 34,32 33,31 33,30 33,29 33,28 33,28 32,27 32,26 32,25 32,24 32,23 32,22 33,21 33,21 33,20 33,19 33,18 34,17 34,17 34,16 35,15 35,15 35,14 36,13 36,13 37,12 37,12 38,11 38,11 39,10 39,10 40,9 40,9 41,8 41,8 42,7 43,7 43,7 44,6 45,6 45,6 46,5 47,5 48,5 49,5 50,5 51,5 51,5 52,4 53,4 54,5 54,5 55,5 56,5 57,5 58,5 59,6 59,6 60,6 61,6 62,7 62,7 63,8 63,8 64,8 65,9 65,9 66,10 66,10 67,11 67,11 68,12 68,12 69,13 69,14 69,14 70,15 70,15 71,16 71,17 71,18 71,18 72,19 72,20 72,21 72,22 72,23 72,24 72,25 72,26 72,27 72,28 72,29 72,30 71,31 71,31 71,32 71,32 72,32 73,32 74,32 75,32 76,32 77,32 78,32 79,32 80,32 81,32 82,32 83,32 84,32 85,32 86,32 87,32 88,32 89,32 90,32 91,32 92,33 92,33 93,33 94,33 95,34 95,35 95,35 96,36 96,37 96,38 96,39 96,40 96,41 96,42 96,43 96,44 96,45 96,46 96,47 96,48 96,49 96,50 96,51 96,52 96,53 96,54 96,55 96,56 96,57 96,57 97,57 98,57 99,57 99,57 100,56 101,56 102,56 103,56 104,56 105,56 106,56 107,56 108,56 109,57 109,57 110,57 111,57 112,58 112,58 113,58 114,59 114,59 115,59 116,60 116,60 117,61 117,61 118,62 118,62 119,63 119,63 120,64 120,64 121,65 121,66 121,66 122,67 122,68 122,68 123,69 123,70 123,71 123,71 124,72 124,73 124,74 124,75 124,76 124,77 124,78 124,79 124,80 123,81 123,81 123,82 123,83 122,84 122,84 122,85 121,86 121,86 121,87 120,88 120,88 119,89 119,89 118,90 118,90 117,91 117,91 116,92 116,92 115,93 115,93 114,94 113,94 113,94 112,95 111,95 110,95 110,95 109,96 108,96 107,96 106,96 105,96 104,96 103,96 102,96 101,96 100,96 99,96 98,95 98,95 97,95 96,95 96,95 96,96 96,97 96,98 96,99 96,100 96,101 96,102 96,103 96,104 96,105 96,106 96,107 96,108 96,109 96,110 96,111 96,112 96,113 96,114 96,115 96,116 96,117 96,118 96,119 96,120 95,121 95,121 95,122 94,123 93,123 93,123 92,124 91,124 90,124 89,124 88,124 87,124 86,124 85,124 84,124 83,124 82,124 81,124 80,124 79,124 78,124 77,124 76,124 75,124 74,124 73,124 72,124 71,124 70,124 69,124 68,124 67,124 66,124 65,124 64,124 63,124 62,123 62,123 61,123 60,122 60,121 60,120 60,119 60,118 60,117 61,116 61,116 62,115 62,115 62,114 63,113 63,113 63,112 63,111 64,110 64,110 64,109 64,108 64,107 64,106 64,105 64,105 63,104 63,103 63,103 62,102 62,101 62,101 61,100 61,100 60,99 60,99 59,98 59,98 58,98 57,97 57,97 56,97 55,97 54,96 54,96 53,96 52,96 51,96 51,96 50,97 49,97 48,97 48,97 47,98 46,98 46,98 45,99 45,99 44,100 44,100 43,101 43,101 42,102 42,102 42,103 41,104 41,104 41,105 41,106 41,107 41,108 41,109 41,110 41,111 41,111 42,112 42,113 42,114 42,114 43,115 43,115 44,116 44,116 45,117 45,118 45,119 45,120 45,121 44,122 44,122 43,123 43,123 42,124 41,124 40,124 39,124 38,124 37,124 36,124 35,124 34,124 33,124 32,124 31,124 30,124 29,124 28,124 27,124 26,124 25,124 24,124 23,124 22,124 21,124 20,124 19,124 18,124 17,124 16,124 15,124 14,124 13,124 12,124 11,124 10,124 9,124 8,124 7,123 7,123 6,122 6,122 5,121 5,120 5,119 5,119 4,118 4,117 4,116 4,115 4,114 4,113 4,112 4,111 4,110 4,109 4,108 4,107 4,106 4,105 4,104 4,103 4,102 4,101 4,100 4,99 4,98 4,97 4,96 4,95 4,94 4,93 4,92 4,91 4,90 4,89 4,88 4,87 4,86 4,85 5,84 5,84 5,83 5,82 6,81 6,81 7,80 7,80 8,79 9,79 10,79 11,80 11,80 12,80 13,81 13,81 14,82 14,82 15,82 16,83 16,83 17,83 18,83 19,84 19,84 20,84 21,84 22,84 22,84 23,83 24,83 25,83 25,83 26,82 27,82 27,82 28,81 28,81 29,80 29,80 30,79 30,79 31,78 31,78 31,77 31,76 32,75 32,75 32,74 32,73 32,72 32,71 32,70 32,69 32,69 31,68 31,67 31,67 30,66 30,65 30,65 29,64 29,64 28,63 28,63 27,63 26,62 26,62 25,61 25,61 24,61 23,61 22,61 21,61 20,61 19,61 18,61 17,61 17,61 16,62 15,62 15,62 14,63 13,63 13,63 12,64 12,64 11,65 10,65 9,65 8,65 7,65 6,64 6,64 5,63 5,62 5,61 5,61 4,60 4,59 4,58 4,57 4,56 4,55 4,54 4,53 4,52 4,51 4,50 4,49 4,48 4,47 4,46 4,45 4,44 4,43 4,42 4,41 4,40 4,39" fill="#575A5C" />
  <polygon points=" 7,36 8,35 9,35 10,35 11,35 12,35 13,35 14,35 15,35 16,35 17,35 18,35 19,35 20,35 21,35 22,35 23,35 24,35 25,35 26,35 27,35 28,35 29,35 30,35 31,35 32,35 33,35 34,35 35,35 36,35 37,35 38,35 39,35 40,35 40,35 40,35 39,34 39,34 38,33 38,32 38,32 37,31 37,30 37,30 36,29 36,28 36,27 36,27 35,26 35,25 35,24 35,23 35,22 35,21 36,20 36,20 36,19 36,18 37,17 37,17 37,16 38,15 38,15 38,14 39,13 39,13 40,12 40,12 41,11 41,11 42,10 43,10 43,10 44,9 45,9 45,9 46,8 47,8 48,8 48,8 49,7 50,7 51,7 52,7 53,7 54,7 55,8 55,8 56,8 57,8 58,9 58,9 59,9 60,10 60,10 61,11 61,11 62,12 62,12 63,13 63,13 64,14 64,14 65,15 65,15 66,16 66,17 66,17 67,18 67,19 67,19 68,20 68,21 68,22 68,23 68,24 68,25 68,26 68,27 67,28 67,28 67,29 66,30 66,30 66,31 65,32 65,32 65,33 64,34 64,34 63,35 63,35 63,35 64,35 65,35 66,35 67,35 68,35 69,35 70,35 71,35 72,35 73,35 74,35 75,35 76,35 77,35 78,35 79,35 80,35 81,35 82,35 83,35 84,35 85,35 86,35 87,35 88,35 89,35 90,35 91,35 92,36 92,37 92,38 92,39 92,40 92,41 92,42 92,43 92,44 92,45 92,46 92,47 92,48 92,49 92,50 92,51 92,52 92,53 92,54 92,55 92,56 92,57 92,58 92,59 92,60 92,61 92,62 92,63 92,63 92,63 93,62 93,62 94,61 95,61 96,61 96,61 97,60 98,60 98,60 99,59 100,59 101,59 102,59 103,59 104,59 105,59 106,59 107,59 108,60 108,60 109,60 110,61 110,61 111,61 112,62 112,62 113,63 113,63 114,64 114,64 115,65 115,65 116,66 116,66 117,67 117,68 117,68 118,69 118,70 118,70 119,71 119,72 119,73 119,74 119,75 119,76 119,77 119,78 119,79 118,80 118,80 118,81 118,82 117,83 117,83 117,84 116,85 116,85 115,86 115,86 114,87 114,87 113,88 113,88 112,89 111,89 111,89 110,90 109,90 109,90 108,91 107,91 106,91 105,91 104,91 103,91 102,91 101,91 100,91 99,91 98,91 97,90 97,90 96,90 95,89 95,89 94,89 93,88 93,88 92,87 92,87 91,87 91,87 91,88 91,89 91,90 91,91 91,92 91,93 91,94 91,95 91,96 91,97 91,98 91,99 91,100 91,101 91,102 91,103 91,104 91,105 91,106 91,107 91,108 91,109 91,110 91,111 91,112 91,113 91,114 91,115 91,116 91,117 91,118 90,119 89,119 88,119 87,119 86,119 85,119 84,119 83,119 82,119 81,119 80,119 79,119 78,119 77,119 76,119 75,119 74,119 73,119 72,119 71,119 70,119 69,119 68,119 67,119 66,119 65,119 64,119 63,119 62,118 63,117 63,117 64,116 64,116 65,115 65,115 65,114 66,113 66,113 66,112 66,111 66,110 66,109 66,108 66,107 66,106 66,105 66,104 66,103 66,102 66,101 66,101 65,100 65,99 65,99 64,98 64,98 63,97 63,97 62,96 62,96 61,95 61,95 60,94 60,94 59,93 59,93 58,93 57,92 57,92 56,92 55,92 54,92 53,92 52,92 51,92 50,92 49,92 48,92 47,92 46,92 46,92 45,93 44,93 44,93 43,94 42,94 42,94 41,95 41,95 40,96 40,96 39,97 39,97 39,98 38,99 38,99 37,100 37,100 37,101 37,102 36,103 36,103 36,104 36,105 36,106 36,107 36,108 36,109 36,110 36,111 36,111 37,112 37,113 37,114 37,114 38,115 38,115 39,116 39,116 40,117 40,117 41,118 40,119 39,119 38,119 37,119 36,119 35,119 34,119 33,119 32,119 31,119 30,119 29,119 28,119 27,119 26,119 25,119 24,119 23,119 22,119 21,119 20,119 19,119 18,119 17,119 16,119 15,119 14,119 13,119 12,119 11,119 10,119 9,119 8,119 7,118 7,117 7,116 7,115 7,114 7,113 7,112 7,111 7,110 7,109 7,108 7,107 7,106 7,105 7,104 7,103 7,102 7,101 7,100 7,99 7,98 7,97 7,96 7,95 7,94 7,93 7,92 7,91 7,90 7,89 7,88 7,87 7,86 7,85 7,84 7,83 7,82 8,81 9,82 9,82 10,83 10,83 11,84 11,84 12,85 12,85 13,85 14,86 14,86 15,86 16,86 17,87 17,87 18,87 19,87 20,87 21,87 22,87 22,87 23,86 24,86 25,86 25,86 26,85 27,85 27,85 28,84 29,84 29,84 30,83 30,83 31,82 31,82 32,81 32,81 32,80 33,79 33,79 34,78 34,78 34,77 34,76 35,75 35,75 35,74 35,73 35,72 35,71 35,70 35,69 35,68 35,67 35,67 34,66 34,65 34,65 33,64 33,63 33,63 32,62 32,62 31,61 31,61 30,60 30,60 29,59 29,59 28,58 28,58 27,57 27,57 26,57 25,57 24,56 24,56 23,56 22,56 21,56 20,56 19,56 18,56 17,56 16,56 15,56 15,56 14,57 13,57 13,57 12,58 11,58 11,58 10,59 10,59 9,60 9,60 8,61 7,60 7,59 7,58 7,57 7,56 7,55 7,54 7,53 7,52 7,51 7,50 7,49 7,48 7,47 7,46 7,45 7,44 7,43 7,42 7,41 7,40 7,39 7,38 7,37" fill="#88B3D4" />
</svg>